<svg width="116" height="103" viewBox="0 0 116 103" fill="none" xmlns="http://www.w3.org/2000/svg">
<g id="Group 4">
<path id="workit" fill-rule="evenodd" clip-rule="evenodd" d="M77.2747 24.224V18.88L79.1947 16.768L83.6427 24.224H89.0827L82.7787 13.792L89.1147 6.752H83.1947L77.2747 13.056V0H72.4747V24.224H77.2747ZM53.5556 23.424C52.1476 24.2133 50.5796 24.608 48.8516 24.608C47.1236 24.608 45.5503 24.2133 44.1316 23.424C42.7129 22.6347 41.5823 21.552 40.7396 20.176C39.8969 18.8 39.4756 17.2373 39.4756 15.488C39.4756 13.7173 39.8969 12.1493 40.7396 10.784C41.5823 9.41867 42.7129 8.34133 44.1316 7.552C45.5503 6.76267 47.1236 6.368 48.8516 6.368C50.5796 6.368 52.1476 6.76267 53.5556 7.552C54.9636 8.34133 56.0889 9.41867 56.9316 10.784C57.7743 12.1493 58.1956 13.7173 58.1956 15.488C58.1956 17.2373 57.7743 18.8 56.9316 20.176C56.0889 21.552 54.9636 22.6347 53.5556 23.424ZM24.5921 13.024L20.5281 24.224H16.3681L10.3521 6.752H15.3121L18.7041 16.896L22.5121 6.752H26.6721L30.4481 16.896L33.8401 6.752H38.8321L32.784 24.224H28.6241L24.5921 13.024ZM48.8516 20.288C47.5503 20.288 46.4889 19.84 45.6676 18.944C44.8463 18.048 44.4356 16.896 44.4356 15.488C44.4356 14.1013 44.8463 12.9547 45.6676 12.048C46.4889 11.1413 47.5503 10.688 48.8516 10.688C50.1529 10.688 51.2089 11.1413 52.0196 12.048C52.8303 12.9547 53.2356 14.1013 53.2356 15.488C53.2356 16.896 52.8303 18.048 52.0196 18.944C51.2089 19.84 50.1529 20.288 48.8516 20.288ZM65.3672 14.816V24.224H60.5672V6.752H65.0472V9.376C65.4952 8.288 66.1298 7.54667 66.9512 7.152C67.7725 6.75733 68.7165 6.56 69.7832 6.56H70.8072V10.72H69.3032C68.1298 10.72 67.1805 11.0773 66.4552 11.792C65.7298 12.5067 65.3672 13.5147 65.3672 14.816ZM93.5983 0.384V3.904H91.6783V0.384H93.5983ZM93.5983 24.224V7.232H91.6783V24.224H93.5983ZM105.314 24.384C105.015 24.4053 104.78 24.416 104.61 24.416C103.18 24.416 102.087 24.016 101.33 23.216C100.572 22.416 100.194 21.248 100.194 19.712V9.056H96.9938V7.232H98.2098C98.8285 7.232 99.3138 7.04 99.6658 6.656C100.018 6.272 100.194 5.74933 100.194 5.088V3.264H102.114V7.232H105.826V9.056H102.114V19.712C102.114 20.1813 102.183 20.64 102.322 21.088C102.46 21.536 102.732 21.8987 103.138 22.176C103.543 22.4533 104.13 22.592 104.898 22.592C105.068 22.592 105.276 22.5813 105.522 22.56C105.767 22.5387 105.964 22.5173 106.114 22.496V24.256C105.879 24.32 105.612 24.3627 105.314 24.384Z" fill="#24053E"/>
<g id="Group 14">
<path id="Path" d="M18.8958 82.224H1.10417C0.494167 82.224 0 82.7182 0 83.3282V101.121C0 101.73 0.494167 102.224 1.10417 102.224H10.6833V94.479H8.07667V91.4607H10.6833V89.2348C10.6833 86.6515 12.2608 85.2448 14.5658 85.2448C15.67 85.2448 16.6183 85.3273 16.895 85.364V88.064L15.2967 88.0648C14.0433 88.0648 13.8008 88.6607 13.8008 89.534V91.4615H16.79L16.4008 94.4798H13.8008V102.224H18.8975C19.5058 102.224 20 101.73 20 101.12V83.3282C20 82.7182 19.5058 82.224 18.8958 82.224Z" fill="#584D62"/>
<path id="Shape" fill-rule="evenodd" clip-rule="evenodd" d="M106 82.224C103.284 82.224 102.944 82.2357 101.878 82.284C98.2458 82.4507 96.2275 84.4657 96.0608 88.1007C96.0117 89.1682 96 89.5082 96 92.224C96 94.9398 96.0117 95.2807 96.06 96.3473C96.2267 99.979 98.2417 101.997 101.877 102.164C102.944 102.212 103.284 102.224 106 102.224C108.716 102.224 109.057 102.212 110.123 102.164C113.752 101.997 115.775 99.9823 115.939 96.3473C115.988 95.2807 116 94.9398 116 92.224C116 89.5082 115.988 89.1682 115.94 88.1015C115.777 84.4732 113.759 82.4515 110.124 82.2848C109.057 82.2357 108.716 82.224 106 82.224ZM106 84.0265C108.67 84.0265 108.987 84.0365 110.042 84.0848C112.752 84.2082 114.017 85.494 114.141 88.184C114.189 89.2382 114.198 89.5548 114.198 92.2248C114.198 94.8957 114.188 95.2115 114.141 96.2657C114.017 98.9532 112.754 100.241 110.042 100.365C108.987 100.413 108.672 100.423 106 100.423C103.33 100.423 103.013 100.413 101.959 100.365C99.2425 100.241 97.9833 98.949 97.86 96.2648C97.8117 95.2107 97.8017 94.8948 97.8017 92.224C97.8017 89.554 97.8125 89.2382 97.86 88.1832C97.9842 85.494 99.2467 84.2073 101.959 84.084C103.014 84.0365 103.33 84.0265 106 84.0265ZM100.865 92.224C100.865 89.3882 103.164 87.089 106 87.089C108.836 87.089 111.135 89.3882 111.135 92.224C111.135 95.0607 108.836 97.3598 106 97.3598C103.164 97.3598 100.865 95.0598 100.865 92.224ZM106 95.5573C104.159 95.5573 102.667 94.0657 102.667 92.224C102.667 90.3832 104.159 88.8907 106 88.8907C107.841 88.8907 109.333 90.3832 109.333 92.224C109.333 94.0657 107.841 95.5573 106 95.5573ZM110.137 86.8865C110.137 86.224 110.675 85.6865 111.338 85.6865C112.001 85.6865 112.538 86.224 112.538 86.8865C112.538 87.549 112.001 88.0865 111.338 88.0865C110.675 88.0865 110.137 87.549 110.137 86.8865Z" fill="#584D62"/>
<path id="Path_2" d="M68 86.3962C67.2642 86.7228 66.4733 86.9428 65.6433 87.042C66.4908 86.5345 67.1417 85.7303 67.4475 84.772C66.655 85.242 65.7767 85.5837 64.8417 85.7678C64.0942 84.9703 63.0267 84.472 61.8467 84.472C59.1975 84.472 57.2508 86.9437 57.8492 89.5095C54.44 89.3387 51.4167 87.7053 49.3925 85.2228C48.3175 87.067 48.835 89.4795 50.6617 90.7012C49.99 90.6795 49.3567 90.4953 48.8042 90.1878C48.7592 92.0887 50.1217 93.867 52.095 94.2628C51.5175 94.4195 50.885 94.4562 50.2417 94.3328C50.7633 95.9628 52.2783 97.1487 54.075 97.182C52.35 98.5345 50.1767 99.1387 48 98.882C49.8158 100.046 51.9733 100.725 54.29 100.725C61.9083 100.725 66.2125 94.2912 65.9525 88.5203C66.7542 87.9412 67.45 87.2187 68 86.3962Z" fill="#584D62"/>
</g>
</g>
</svg>
